# xmcd
#
# Track frame offsets:
# 150
# 16801
# 27935
# 44503
# 56693
# 67914
# 79693
# 98744
# 116604
# 133827
# 147490
# 160216
#
# Disc length: 2453 seconds
#
#
# Revision: 0
# Processed by: cddbd v1.5.1PL2 Copyright (c) Steve Scherf et al.
# Submitted via: FreeRIP 2.945 
#
DISCID=9f09930c
DTITLE=Jacaré - Acordes pra Jacaré
DYEAR=1900
DGENRE=Chorinho
TTITLE0=Silvana_Jacaré
TTITLE1=Barreteando_Henrique Ánnes
TTITLE2=Adordes pra Jacaré_Henrique Annes
TTITLE3=Pisando na Brasa_Adalberto Cavalcanti
TTITLE4=A Cobrar_Bozó
TTITLE5=Suite Nordestina_2 mov Maracatu_Marco e Elizeu
TTITLE6=Capoeirando_Bedeco
TTITLE7=Jacaré cintilante_Mauricio e Marcelo
TTITLE8=Saudade de Limoeiro_Jacaré
TTITLE9=Jacarezinho_Jacaré
TTITLE10=Pro Hermínio_Jacaré
TTITLE11=Galho Seco_Jacaré
EXTD=Henrique Annes-violão 6 cordas\nTrio Choro Miúdo\nMarco César\nOrquestra Retratos do Nordeste\nMaurício Carrilho- violão sete cordas\nLuciana Rabello - cavaquinho\nDalva Torres
EXTT0=Orquestra Retratos do Nordeste
EXTT1=Henrique Annes
EXTT2=Henrique Annes
EXTT3=Trio Choro Miúdo
EXTT4=Trio Choro Miúdo
EXTT5=Autores Marco César/ Elizeu Silva dos Santos - Orquestra Retratos do Nordeste
EXTT6=Toque de Angola_Orquestra Retratos do Nordeste
EXTT7=autores: maurício Cavalcanti/Marcelo Varella - Interpretes: Grupo Regional e Dalva Torres
EXTT8=Grupo Regional
EXTT9=Grupo Regional
EXTT10=Grupo Regional
EXTT11=Grupo Regional e Orquestra Retratos do Nordeste
PLAYORDER=
